<svg xmlns="http://www.w3.org/2000/svg" xmlns:xlink="http://www.w3.org/1999/xlink" width="350" zoomAndPan="magnify" viewBox="0 0 262.5 262.500001" height="350" preserveAspectRatio="xMidYMid meet" version="1.0"><defs><g/></defs><path fill="none" d="M 0 0 L 262 0 L 262 262 L 0 262 Z M 0 0 " fill-opacity="1" fill-rule="nonzero"/><path fill="none" d="M 0 0 L 262 0 L 262 262 L 0 262 Z M 0 0 " fill-opacity="1" fill-rule="nonzero"/><g fill="#000000" fill-opacity="1"><g transform="translate(83.976259, 198.667448)"><g><path d="M 49.5 10.125 L 47.53125 7.03125 C 42.1875 -2.53125 28.6875 -14.0625 18.84375 -19.125 L 5.625 -25.59375 C 6.46875 -25.875 9.5625 -27.5625 10.6875 -28.40625 L 49.78125 -47.53125 C 49.78125 -28.125 49.5 -9.84375 49.5 10.125 Z M 50.34375 -53.996094 L 14.625 -36.84375 C 12.65625 -35.15625 11.53125 -34.59375 9.28125 -33.1875 C 1.125 -29.25 1.6875 -27.5625 -0.28125 -27.5625 C -1.40625 -27.5625 -3.375 -28.125 -8.71875 -29.25 L -45 -37.96875 C -55.964844 -41.34375 -44.4375 -50.90625 -40.78125 -56.246094 L -16.3125 -77.339844 C -15.1875 -78.183594 -14.0625 -78.746094 -12.9375 -79.308594 C -0.28125 -89.152344 11.25 -96.183594 24.75 -104.621094 C 27.28125 -106.308594 29.25 -107.152344 31.5 -108.839844 L 53.714844 -120.933594 C 53.714844 -115.027344 53.152344 -110.246094 52.871094 -104.621094 C 52.589844 -98.996094 52.03125 -93.933594 52.03125 -88.027344 C 51.46875 -77.058594 50.34375 -66.652344 50.34375 -53.996094 Z M 55.121094 -128.527344 L 33.1875 -116.996094 C 31.5 -116.433594 30.09375 -115.027344 28.40625 -114.183594 L 17.71875 -107.996094 C 15.75 -106.589844 14.34375 -105.746094 12.375 -104.621094 C 10.6875 -103.496094 9.28125 -102.652344 7.59375 -101.527344 L -17.15625 -84.652344 C -28.6875 -75.933594 -43.03125 -64.121094 -51.75 -52.589844 C -52.871094 -50.90625 -53.996094 -48.9375 -54.558594 -46.96875 C -55.683594 -45.28125 -56.246094 -42.46875 -55.964844 -40.5 C -53.996094 -32.0625 -41.625 -29.8125 -34.3125 -28.96875 L -7.3125 -22.78125 L -12.65625 -18.28125 C -19.96875 -12.375 -17.4375 -9.5625 -12.375 -9.5625 C -9.5625 -9.5625 -8.15625 -10.125 -5.90625 -11.25 C -5.90625 -13.5 -6.46875 -14.0625 -7.59375 -14.0625 C -8.4375 -14.0625 -9.84375 -13.5 -11.25 -13.5 C -10.125 -15.46875 -3.09375 -21.09375 -1.125 -20.8125 C -0.28125 -20.53125 -0.28125 -20.53125 0.5625 -20.25 C 1.40625 -19.96875 2.53125 -19.40625 3.375 -19.125 C 25.875 -9.28125 45.5625 4.78125 49.5 30.375 C 50.0625 34.3125 50.34375 35.4375 53.714844 35.4375 C 58.496094 35.4375 56.808594 20.8125 56.808594 15.75 L 56.808594 -23.0625 C 57.089844 -25.3125 57.371094 -25.875 57.371094 -28.6875 C 57.371094 -36.5625 57.933594 -43.59375 57.933594 -50.90625 L 75.652344 -58.214844 C 79.589844 -59.621094 92.246094 -64.121094 95.339844 -64.121094 C 93.933594 -61.871094 90.839844 -61.308594 90.839844 -58.496094 C 90.839844 -57.371094 91.402344 -57.089844 92.246094 -57.089844 C 95.621094 -57.089844 104.339844 -63.839844 104.339844 -66.652344 C 104.339844 -69.746094 102.652344 -70.027344 100.683594 -70.027344 C 99.839844 -70.027344 98.714844 -70.027344 97.871094 -70.027344 C 94.214844 -70.027344 81.277344 -65.808594 77.058594 -64.402344 C 75.089844 -63.839844 74.246094 -62.996094 72.558594 -62.714844 C 68.058594 -61.027344 62.152344 -59.058594 57.933594 -57.089844 L 60.464844 -107.152344 C 60.746094 -113.339844 60.746094 -118.402344 60.746094 -124.589844 C 62.152344 -125.714844 63.277344 -125.996094 65.246094 -126.839844 L 74.246094 -131.621094 C 84.089844 -137.246094 118.402344 -151.589844 129.089844 -153.839844 C 134.433594 -154.402344 137.808594 -155.246094 143.433594 -155.246094 C 143.433594 -153.277344 144.277344 -152.433594 145.402344 -152.433594 C 148.496094 -152.433594 153.558594 -160.585938 140.339844 -160.585938 C 126.277344 -160.585938 111.089844 -154.683594 98.152344 -149.339844 L 61.308594 -132.183594 C 61.308594 -134.433594 61.871094 -134.433594 61.871094 -136.964844 L 63.277344 -169.304688 C 63.277344 -172.117188 62.996094 -173.242188 60.746094 -173.242188 C 58.496094 -173.242188 58.777344 -167.617188 58.214844 -163.117188 Z M 55.121094 -128.527344 "/></g></g></g><g fill="none" fill-opacity="1"><g transform="translate(185.252892, 198.667448)"><g/></g></g>
<style>
@media (prefers-color-scheme: dark) {
    svg {
        filter: invert(1) hue-rotate(180deg);
    }
}
</style>
</svg>